<svg viewBox="0 0 747 683" xmlns="http://www.w3.org/2000/svg">
  <path
    d="M581.229 55.5536C640.899 94.0084 688.296 154.254 717.919 225.182C747.119 296.11 758.545 378.147 732.308 443.52C705.647 508.893 641.745 558.457 576.574 600.757C511.403 643.485 444.962 679.803 376.828 682.794C308.272 685.785 237.599 655.876 172.004 613.576C106.41 570.848 45.894 515.729 18.3866 446.083C-9.54389 376.01 -4.46563 291.837 25.5808 221.337C56.0505 150.409 111.488 94.0084 174.544 56.4082C237.599 18.8079 308.272 0.862359 379.367 0.00780829C450.463 -0.419467 521.982 16.6716 581.229 55.5536Z"
    fill="#0092D6" />
</svg>